<?xml version="1.0" standalone="no"?>
<!DOCTYPE svg PUBLIC "-//W3C//DTD SVG 20010904//EN"
 "http://www.w3.org/TR/2001/REC-SVG-20010904/DTD/svg10.dtd">
<svg version="1.0" xmlns="http://www.w3.org/2000/svg"
 width="896.000000pt" height="896.000000pt" viewBox="0 0 896.000000 896.000000"
 preserveAspectRatio="xMidYMid meet">
<metadata>
Created by potrace 1.14, written by Peter Selinger 2001-2017
</metadata>
<g transform="translate(0.000000,896.000000) scale(0.100000,-0.100000)"
fill="#000000" stroke="none">
<path d="M4302 8908 c-11 -24 -65 -140 -120 -258 -55 -118 -160 -345 -235
-505 -115 -248 -1769 -3800 -2073 -4453 -57 -123 -104 -225 -104 -227 0 -3
363 -5 806 -5 762 0 805 -1 800 -17 -3 -10 -139 -305 -301 -657 -162 -351
-295 -643 -295 -647 0 -5 689 -9 1550 -9 l1550 0 -24 53 c-12 28 -103 230
-201 447 -98 217 -222 492 -275 610 l-97 215 -946 3 c-521 1 -947 4 -947 6 0
4 123 281 360 806 78 173 199 443 270 600 70 157 166 370 213 473 46 103 88
189 93 190 4 1 41 -70 81 -158 40 -88 253 -554 472 -1035 l399 -875 801 -3
c444 -1 801 2 801 7 0 4 -53 122 -119 262 -65 140 -194 416 -286 614 -92 198
-214 459 -270 580 -124 265 -314 674 -540 1160 -92 198 -214 459 -270 580 -57
121 -178 382 -270 580 -92 198 -214 459 -270 580 -57 121 -178 382 -270 580
-92 198 -187 402 -211 453 -23 50 -45 92 -48 92 -3 0 -14 -19 -24 -42z"/>
<path d="M1111 2068 c-83 -183 -172 -375 -521 -1133 -210 -457 -393 -854 -406
-882 l-23 -53 835 0 835 0 30 68 c17 37 139 312 271 612 133 300 328 743 435
985 107 242 197 446 200 453 4 9 -162 12 -811 12 l-817 0 -28 -62z"/>
<path d="M5890 2120 c0 -6 66 -158 146 -338 81 -180 245 -547 366 -817 121
-269 267 -597 326 -727 l107 -238 832 0 c458 0 833 3 833 6 0 7 -78 176 -630
1358 l-355 761 -813 3 c-566 1 -812 -1 -812 -8z"/>
</g>
</svg>
