<svg width="78" height="76" viewBox="0 0 78 76" fill="none" xmlns="http://www.w3.org/2000/svg">
<path fill-rule="evenodd" clip-rule="evenodd" d="M38.0794 1.76774L37.4838 3.61446H35.4486C34.315 3.61446 33.4134 3.69097 33.4134 3.78711C33.4134 3.88196 34.1248 4.47123 34.9942 5.09644C35.8637 5.72165 36.5751 6.33685 36.5751 6.46375C36.5751 6.59046 36.3231 7.43667 36.0153 8.344C35.7073 9.25134 35.4787 10.0638 35.5074 10.1494C35.536 10.235 36.2824 9.76207 37.1658 9.09833L38.772 7.89163L40.3852 9.10352C41.2726 9.77004 42.0305 10.2835 42.0695 10.2446C42.1088 10.2057 41.8581 9.30636 41.5127 8.24619L40.8848 6.31833L42.5358 5.10533C43.444 4.43826 44.1899 3.82991 44.1937 3.7534C44.1976 3.67689 43.2561 3.61446 42.1019 3.61446H40.0032L39.4705 1.84869C39.1776 0.877441 38.8787 0.0464228 38.8064 0.00177826C38.7342 -0.042681 38.4069 0.752029 38.0794 1.76774ZM54.6144 6.11956L53.9845 8.06039H51.9753C50.8702 8.06039 49.9706 8.12282 49.976 8.19933C49.9815 8.27583 50.6911 8.83843 51.5529 9.44974C52.4146 10.0611 53.1215 10.6444 53.1238 10.7461C53.126 10.8476 52.868 11.7073 52.5506 12.6566C52.2333 13.6056 52.0179 14.4264 52.072 14.4805C52.1263 14.5344 52.7836 14.1287 53.5328 13.5789C54.2819 13.0291 55.0005 12.5154 55.1302 12.4374C55.2782 12.3483 55.9853 12.7488 57.0365 13.5172C57.9555 14.1891 58.7069 14.7159 58.7063 14.6878C58.7058 14.6596 58.4227 13.7415 58.0773 12.6477L57.4492 10.6587L59.1399 9.40584L60.8306 8.15302L58.7158 8.06039L56.601 7.96777L55.9846 6.13493C55.6455 5.12682 55.3402 4.27431 55.3061 4.24041C55.2721 4.20651 54.9608 5.05198 54.6144 6.11956ZM21.3899 6.16291L20.8046 7.96777L18.6931 8.06039L16.5816 8.15302L18.2806 9.43011L19.9798 10.7072L19.3484 12.5743C19.0011 13.6013 18.7389 14.5011 18.7653 14.5739C18.7917 14.6465 19.5442 14.1617 20.4375 13.4963L22.0613 12.2864L23.7388 13.5126C24.6612 14.1871 25.4145 14.6743 25.4126 14.5952C25.4109 14.5161 25.1599 13.6636 24.8547 12.7006C24.5496 11.7379 24.3045 10.8626 24.3099 10.7555C24.3155 10.6487 25.025 10.0611 25.8869 9.44974C26.7486 8.83843 27.4555 8.27583 27.4577 8.19933C27.46 8.12282 26.5386 8.06039 25.4102 8.06039C23.9342 8.06039 23.3367 7.99537 23.2809 7.82883C23.2381 7.70157 22.9797 6.86796 22.7067 5.97636C22.4337 5.08496 22.1575 4.35601 22.0928 4.35675C22.0281 4.35749 21.7119 5.17035 21.3899 6.16291ZM9.63005 18.2338L9.03936 20.0898L6.86463 20.1418L4.6899 20.1941L6.4045 21.4908C7.34745 22.204 8.1191 22.8337 8.1191 22.8902C8.11929 22.9465 7.83194 23.8425 7.48062 24.8816C7.12947 25.9204 6.8916 26.7703 6.95223 26.7703C7.05024 26.7703 7.46629 26.4726 9.71803 24.7915L10.2938 24.3618L11.9182 25.5822C12.8117 26.2533 13.5772 26.7681 13.6193 26.7261C13.6615 26.684 13.4022 25.7806 13.0431 24.7185C12.4284 22.9002 12.4094 22.774 12.7191 22.5543C12.8999 22.4259 13.6756 21.8424 14.4428 21.2576L15.8377 20.1941L13.6799 20.1422L11.5223 20.0901L11.0047 18.3824C10.7201 17.443 10.4274 16.6077 10.3541 16.5262C10.2808 16.4447 9.95497 17.2131 9.63005 18.2338ZM66.7565 18.2027L66.185 20.0088L64.0895 20.1014L61.994 20.1941L62.8149 20.8532C63.2665 21.2155 64.0253 21.7864 64.5011 22.1217L65.3659 22.7312L64.7319 24.6068C64.383 25.6385 64.1194 26.5421 64.1458 26.6149C64.1723 26.6875 64.9264 26.2016 65.8214 25.5347L67.4488 24.3225L69.075 25.5321C69.9694 26.1974 70.7283 26.7148 70.7614 26.6818C70.7947 26.6488 70.554 25.7807 70.2268 24.7528C69.7985 23.4068 69.6869 22.8185 69.8281 22.6504C69.936 22.5221 70.6537 21.9585 71.4231 21.3982C72.1923 20.8378 72.8266 20.3195 72.8321 20.2465C72.8377 20.1733 71.9037 20.09 70.7567 20.0612L68.6709 20.0088L68.1064 18.206C67.7958 17.2144 67.4938 16.4015 67.435 16.3998C67.3762 16.398 67.0708 17.2094 66.7565 18.2027ZM30.9158 32.804C30.5689 33.1495 30.5337 33.8314 30.8468 34.1432C30.9695 34.2654 31.3712 34.3655 31.7395 34.3655C32.508 34.3655 32.8554 34.0985 32.8554 33.5079C32.8554 32.9407 32.3757 32.513 31.7395 32.513C31.4473 32.513 31.0766 32.644 30.9158 32.804ZM5.82125 32.8835C5.75578 33.0363 5.46453 33.8699 5.17383 34.736L4.64545 36.3106L2.56966 36.363C1.42789 36.3917 0.496661 36.4751 0.500009 36.5482C0.503357 36.6212 1.1809 37.1742 2.00556 37.7768C2.83004 38.3794 3.54664 38.9809 3.5976 39.1133C3.64875 39.246 3.42296 40.1544 3.09581 41.1323C2.76885 42.1103 2.53823 42.9472 2.58361 42.9922C2.62899 43.0374 3.39525 42.5263 4.28668 41.8567L5.90755 40.639L7.52376 41.8413C8.41259 42.5024 9.16992 43.0135 9.20675 42.9768C9.24358 42.9402 9.00607 42.1103 8.67911 41.1323C8.35196 40.1544 8.12617 39.246 8.17732 39.1133C8.22828 38.9809 8.94488 38.3794 9.76936 37.7768C10.594 37.1742 11.2716 36.6212 11.2749 36.5482C11.2783 36.4751 10.3442 36.3917 9.19931 36.363L7.11776 36.3106L6.52893 34.4581C6.17741 33.3522 5.89211 32.7175 5.82125 32.8835ZM71.7475 33.115C71.6619 33.3444 71.4013 34.1754 71.1687 34.9618L70.7457 36.3919L68.5941 36.4437L66.4426 36.4958L68.1546 37.7649C69.0962 38.4627 69.8666 39.1011 69.8666 39.1832C69.8666 39.2652 69.5798 40.1522 69.2294 41.1542C68.8788 42.156 68.6143 42.998 68.6415 43.025C68.6686 43.0522 69.4163 42.5293 70.3029 41.8633C72.1341 40.4875 71.854 40.4742 73.9436 42.0378C74.7026 42.6058 75.3506 43.0437 75.3835 43.0109C75.4164 42.9781 75.151 42.0869 74.7937 41.0303C74.4366 39.9736 74.1443 39.0943 74.1443 39.0763C74.1443 39.0583 74.8994 38.4703 75.822 37.7697L77.5 36.4958L75.3948 36.4439L73.2898 36.3921L72.682 34.5452C72.3476 33.5294 72.0357 32.6982 71.9887 32.6982C71.9416 32.6982 71.8332 32.8857 71.7475 33.115ZM28.4955 33.7962L27.2046 33.9023L26.1263 36.5884C25.5331 38.0658 24.9798 39.4323 24.8965 39.6252C24.7812 39.8923 24.4643 39.2412 23.5662 36.8928L22.3872 33.8097H21.0189H19.6504V37.9591V42.1086L20.4873 42.1749L21.3243 42.2411V39.3221C21.3243 37.7168 21.3898 36.4032 21.4699 36.4032C21.5501 36.4032 22.1054 37.6953 22.7043 39.2745L23.7931 42.1458H24.7741H25.7554L26.3461 40.6175C26.671 39.7771 27.1512 38.5057 27.4135 37.7925C27.6755 37.0793 27.961 36.4165 28.0479 36.3198C28.1351 36.2226 28.2058 37.4771 28.2058 39.1261V42.1086L29.0427 42.1749L29.8796 42.2411V37.9328C29.8796 35.5633 29.8586 33.6391 29.8331 33.6573C29.8077 33.6752 29.2056 33.7377 28.4955 33.7962ZM43.2699 37.9778V42.2385L45.5486 42.1458C48.0454 42.0443 48.6244 41.8531 49.4718 40.85C50.6163 39.4951 50.6556 36.6368 49.551 35.0574C48.9062 34.1352 48.2305 33.9203 45.6416 33.8142L43.2699 33.7171V37.9778ZM56.6614 37.9778V42.2385L57.5448 42.1773L58.4285 42.1164V37.9778V33.8392L57.5448 33.7782L56.6614 33.7171V37.9778ZM33.5993 37.9778V42.1458H34.5293H35.4592V40.5712V38.9966H37.3191H39.1789V38.2556V37.5147H37.3191H35.4592V36.4032V35.2917H37.3925H39.3259L39.3967 34.5507L39.4678 33.8097H36.5335H33.5993V37.9778ZM40.1089 37.9778V42.1458H41.0388H41.9687V37.9778V33.8097H41.0388H40.1089V37.9778ZM53.4998 37.9778V42.1458H54.4298H55.3597V37.9778V33.8097H54.4298H53.4998V37.9778ZM47.4335 35.4686C48.2098 35.7628 48.5504 36.4886 48.5556 37.8616C48.5638 39.9536 47.8771 40.6639 45.8467 40.6639H44.9445V37.9778V35.2917H45.9553C46.5112 35.2917 47.1765 35.3713 47.4335 35.4686ZM30.9572 38.8116L30.9026 42.1462L31.786 42.146L32.6694 42.1458V38.8114V35.4769H31.8407H31.0117L30.9572 38.8116ZM9.63619 51.3054L9.04178 53.249L6.88304 53.301L4.72449 53.3533L5.72435 54.0465C6.2745 54.4277 7.04187 55.0112 7.42984 55.3432L8.13529 55.9467L7.4994 57.935C7.14956 59.0285 6.95762 59.866 7.07275 59.7962C7.18806 59.7265 7.93814 59.1861 8.73993 58.5954C9.54152 58.0046 10.2529 57.5234 10.3208 57.526C10.3885 57.5286 11.1546 58.0643 12.0229 58.7167C12.8915 59.369 13.6232 59.8816 13.649 59.8556C13.6749 59.8299 13.4037 58.9444 13.0464 57.8877C12.6893 56.8311 12.397 55.9517 12.397 55.9338C12.397 55.9158 13.1521 55.3278 14.0747 54.6272L15.7527 53.3533L13.639 53.3014L11.5252 53.2493L11.014 51.5245C10.7328 50.5759 10.4415 49.7013 10.3667 49.5809C10.2903 49.4577 9.97041 50.2132 9.63619 51.3054ZM66.7459 51.3239L66.1361 53.2486L64.0573 53.301L61.9787 53.3533L63.6807 54.6148L65.3827 55.8763L64.7319 57.7386C64.3739 58.7629 64.1193 59.6389 64.1657 59.6852C64.2124 59.7317 64.9355 59.2638 65.7729 58.6456C66.61 58.0272 67.3567 57.5213 67.4318 57.5213C67.5072 57.5213 68.2617 58.0269 69.1087 58.6449C69.9557 59.2626 70.6849 59.7319 70.7296 59.6876C70.774 59.6431 70.5562 58.8164 70.2456 57.8503C69.9348 56.8841 69.6806 56.0153 69.6806 55.9193C69.6806 55.8235 70.4106 55.2069 71.3026 54.5492L72.9248 53.3533L70.891 53.3003C69.5521 53.2655 68.8078 53.1704 68.7124 53.0224C68.6326 52.8987 68.3502 52.089 68.0848 51.2229C67.8193 50.3569 67.5466 49.5922 67.4789 49.5238C67.4112 49.4553 67.0813 50.2654 66.7459 51.3239ZM22.1895 61.5968C22.125 61.7496 21.8276 62.5832 21.5285 63.4492L20.9849 65.0238L18.9228 65.0763C17.7885 65.105 16.8634 65.1883 16.8668 65.2615C16.8701 65.3345 17.5477 65.8875 18.3723 66.4901C19.1968 67.0927 19.9134 67.6942 19.9644 67.8266C20.0155 67.9593 19.7897 68.8677 19.4626 69.8456C19.1356 70.8235 18.8975 71.651 18.9336 71.6848C18.9699 71.7185 19.7376 71.2179 20.6397 70.5725L22.2801 69.3988L23.8944 70.5799C24.7825 71.2294 25.5307 71.7014 25.5573 71.6284C25.5841 71.5555 25.3539 70.7533 25.0459 69.846C24.7381 68.9387 24.486 68.0863 24.486 67.9522C24.486 67.8181 25.1766 67.1997 26.0204 66.5782C26.8642 65.9567 27.5818 65.3762 27.6147 65.2885C27.6476 65.2007 26.7318 65.1052 25.5796 65.0763L23.4845 65.0238L22.8957 63.1714C22.547 62.0743 22.2591 61.4323 22.1895 61.5968ZM54.6053 63.2399L54.0117 65.1052L51.8901 65.157L49.7686 65.2091L51.4482 66.4615C52.372 67.1505 53.1279 67.7809 53.1279 67.8626C53.1279 67.9441 52.8768 68.7508 52.5699 69.655C52.263 70.5592 52.0119 71.4134 52.0119 71.553C52.0119 71.7038 52.4466 71.4782 53.0814 70.998C53.6696 70.5531 54.4184 70.0038 54.7456 69.7775L55.3402 69.3656L56.9765 70.5609C57.8764 71.2183 58.6364 71.7326 58.6654 71.7038C58.6942 71.6749 58.6396 71.4463 58.544 71.1959C58.4482 70.9453 58.1606 70.0611 57.9047 69.2312L57.4394 67.722L59.135 66.4656L60.8306 65.2091L58.7147 65.1165L56.5989 65.0238L56.0257 63.3233C55.7106 62.388 55.3956 61.5669 55.3258 61.4988C55.2559 61.4306 54.9317 62.2142 54.6053 63.2399ZM38.2492 67.6169L37.6178 69.5624H35.4934H33.3689L35.0649 70.8004C35.9978 71.4814 36.7611 72.1325 36.7611 72.2477C36.7611 72.3628 36.5091 73.1993 36.2013 74.1067C35.8933 75.014 35.6638 75.8237 35.6913 75.9058C35.7187 75.9877 36.428 75.5527 37.2675 74.939C38.1071 74.3253 38.8657 73.8231 38.9535 73.8231C39.0413 73.8231 39.8059 74.3286 40.6529 74.9466C41.4998 75.5644 42.2254 76.0373 42.2654 75.9977C42.3052 75.9578 42.0504 75.0746 41.6987 74.035L41.0596 72.1445L42.7294 70.8997L44.3992 69.655L42.3094 69.5624L40.2197 69.4698L39.6822 67.7099C39.3867 66.742 39.0854 65.8873 39.0127 65.8108C38.9399 65.7341 38.5964 66.5467 38.2492 67.6169Z" fill="black"/>
</svg>
